<svg width="70" height="76" viewBox="0 0 70 76" fill="none" xmlns="http://www.w3.org/2000/svg">
<path d="M0 10C0 4.47715 4.47715 0 10 0H60C65.5229 0 70 4.47715 70 10V66C70 71.5229 65.5229 76 60 76H10C4.47715 76 0 71.5229 0 66V10Z" fill="#96BB7C"/>
<g clip-path="url(#clip0_0_114)">
<g clip-path="url(#clip1_0_114)">
<path d="M32.5948 34.4945C32.6324 34.4649 32.6717 34.4383 32.7107 34.4103C32.8097 34.3389 32.9132 34.2744 33.0208 34.217C33.0631 34.194 33.104 34.1709 33.1473 34.1506C34.1516 33.6629 35.3508 33.8273 36.1868 34.567C36.231 34.6054 36.2669 34.6491 36.3086 34.6897C36.3926 34.7706 36.4717 34.8566 36.5452 34.9471C36.5869 34.9993 36.6218 35.0555 36.6578 35.1107C36.7176 35.1974 36.7728 35.2875 36.8224 35.3805C36.8546 35.4412 36.8826 35.5029 36.91 35.5661C36.9512 35.6602 36.9868 35.7568 37.0173 35.8548C37.0376 35.9207 37.0568 35.9854 37.0736 36.0521C37.0966 36.1545 37.1139 36.2577 37.1255 36.362C37.1331 36.4271 37.1427 36.4913 37.146 36.5569C37.1502 36.6713 37.1471 36.7858 37.1373 36.9C37.1331 36.956 37.1337 37.0122 37.1266 37.0685C37.1038 37.2326 37.0659 37.3945 37.014 37.5518C37.014 37.5603 37.0113 37.5683 37.0085 37.5765L38.5178 38.448L41.3284 33.5756L25.754 24.5819L22.9435 29.4537L32.2419 34.8211C32.3497 34.7023 32.468 34.5931 32.5948 34.4945Z" fill="white"/>
<path d="M20.1544 29.7883L24.6512 22L25.6242 22.5618L21.1273 30.3501L20.1544 29.7883Z" fill="white"/>
<path d="M45.4882 39.8722L46.0506 38.8981L49.9447 41.1465L49.3824 42.1206L45.4882 39.8722Z" fill="white"/>
<path d="M40.0584 38.0341L41.7447 35.114L45.6389 37.3627L43.9525 40.2828L40.0584 38.0341Z" fill="white"/>
<path d="M35.67 37.9646C35.6442 37.9172 35.6115 37.8738 35.5728 37.8359C35.6615 37.744 35.7391 37.6419 35.8039 37.5318C36.268 36.7249 35.9938 35.6948 35.1899 35.2255C35.0744 35.1607 34.9514 35.1099 34.8241 35.0737C34.7865 35.0624 34.7478 35.0556 34.7118 35.0471C34.6193 35.027 34.5252 35.0147 34.4308 35.01C34.3901 35.01 34.3503 35.0051 34.3097 35.0062C34.1755 35.0092 34.0421 35.0281 33.9123 35.0624C33.3395 35.2131 32.8885 35.6553 32.7269 36.2254C32.5652 36.7954 32.7167 37.4083 33.1254 37.8376C33.087 37.8749 33.0546 37.9177 33.0288 37.9646L25.412 53.1863C25.2734 53.4643 25.3862 53.8019 25.664 53.9408C25.9418 54.0794 26.2796 53.9669 26.4182 53.6889L33.7847 38.9505V53.4377C33.7847 53.7481 34.0363 53.9998 34.3468 53.9998C34.6572 53.9998 34.9089 53.7481 34.9089 53.4377V38.9549L42.2725 53.6889C42.4114 53.9669 42.749 54.0794 43.0271 53.9408C43.3048 53.8019 43.4176 53.4643 43.2787 53.1863L35.67 37.9646Z" fill="white"/>
</g>
</g>
<defs>
<clipPath id="clip0_0_114">
<rect width="32" height="32" fill="white" transform="translate(19 22)"/>
</clipPath>
<clipPath id="clip1_0_114">
<rect width="32" height="32" fill="white" transform="translate(19 22)"/>
</clipPath>
</defs>
</svg>
